<svg width="1600" height="924" viewBox="0 0 1600 924" fill="none" xmlns="http://www.w3.org/2000/svg">
  <defs>
    <linearGradient id="phoneGlow" x1="0" y1="0" x2="1" y2="1">
      <stop offset="0%" stop-color="#8C6BFB" stop-opacity="0.24"/>
      <stop offset="100%" stop-color="#5dd9ff" stop-opacity="0.08"/>
    </linearGradient>
    <linearGradient id="screenGradient" x1="0" y1="0" x2="0" y2="1">
      <stop offset="0%" stop-color="#07070d"/>
      <stop offset="100%" stop-color="#0d0d15"/>
    </linearGradient>
  </defs>
  <rect width="1600" height="924" fill="transparent" />
  <g opacity="0.9">
    <ellipse cx="786" cy="400" rx="540" ry="260" fill="url(#phoneGlow)" />
  </g>

  <g filter="url(#leftGlow)">
    <rect x="60" y="92" width="680" height="740" rx="78" fill="#030305" stroke="rgba(255,255,255,0.12)" stroke-width="1.5" />
    <rect x="68" y="100" width="664" height="724" rx="68" fill="url(#screenGradient)" />
    <rect x="104" y="126" width="128" height="26" rx="13" fill="#16161e" />
    <circle cx="760" cy="139" r="4" fill="#7c7c8b" />
    <rect x="98" y="770" width="72" height="14" rx="7" fill="#262634" opacity="0.7" />
    <rect x="178" y="192" width="184" height="24" rx="12" fill="#0f0f16" />
    <circle cx="144" cy="204" r="22" fill="#4338ca" />
    <text x="190" y="214" fill="#f8fbff" font-family="Inter, sans-serif" font-size="16" font-weight="700">sfera.beauty</text>
    <text x="190" y="236" fill="#9ca3af" font-family="Inter, sans-serif" font-size="12">Aktywny(a) teraz</text>
    <rect x="96" y="272" width="416" height="72" rx="28" fill="rgba(255,255,255,0.08)" />
    <text x="126" y="308" fill="#f8fafc" font-family="Inter, sans-serif" font-size="18" letter-spacing="0.02em">Hej 👋 widziałam efekty na stories, jaki jest najbliższy termin?</text>
    <text x="126" y="332" fill="#94a3b8" font-family="Inter, sans-serif" font-size="12">Dzisiaj 13:48</text>
    <rect x="96" y="364" width="452" height="104" rx="28" fill="rgba(255,255,255,0.08)" />
    <text x="126" y="402" fill="#f8fafc" font-family="Inter, sans-serif" font-size="18" letter-spacing="0.02em">Dzień dobry ✨ Najbliższy wolny termin mamy jutro o 16:30.</text>
    <text x="126" y="426" fill="#94a3b8" font-family="Inter, sans-serif" font-size="12">Dzisiaj 13:48</text>
    <rect x="220" y="476" width="348" height="84" rx="34" fill="#1f2937" />
    <text x="250" y="516" fill="#f8fafc" font-family="Inter, sans-serif" font-size="18" letter-spacing="0.02em">Super, poproszę ten termin!</text>
    <text x="250" y="536" fill="#94a3b8" font-family="Inter, sans-serif" font-size="12">13:49</text>
    <rect x="96" y="566" width="520" height="108" rx="30" fill="rgba(255,255,255,0.08)" />
    <text x="126" y="610" fill="#f8fafc" font-family="Inter, sans-serif" font-size="18" letter-spacing="0.02em">Zapisane! Do zobaczenia jutro o 16:30. W razie pytań jesteśmy do dyspozycji ❤️</text>
    <text x="126" y="634" fill="#94a3b8" font-family="Inter, sans-serif" font-size="12">13:50</text>
    <rect x="96" y="706" width="520" height="60" rx="32" fill="#13131a" />
    <text x="116" y="742" fill="#a1a1aa" font-family="Inter, sans-serif" font-size="14" opacity="0.9">Wyślij wiadomość...</text>
  </g>

  <g filter="url(#rightGlow)">
    <rect x="860" y="112" width="680" height="720" rx="78" fill="#030305" stroke="rgba(255,255,255,0.12)" stroke-width="1.5" />
    <rect x="868" y="120" width="664" height="704" rx="68" fill="url(#screenGradient)" />
    <rect x="904" y="146" width="136" height="24" rx="12" fill="#16161e" />
    <circle cx="1520" cy="159" r="4" fill="#7c7c8b" />
    <rect x="898" y="220" width="178" height="24" rx="12" fill="#0f0f16" />
    <circle cx="928" cy="232" r="22" fill="#0f172a" />
    <text x="962" y="242" fill="#f8fafc" font-family="Inter, sans-serif" font-size="16" font-weight="700">Biuro Prestige</text>
    <text x="962" y="264" fill="#9ca3af" font-family="Inter, sans-serif" font-size="12">online</text>
    <rect x="898" y="304" width="520" height="88" rx="30" fill="#13131a" />
    <text x="938" y="338" fill="#f8fafc" font-family="Inter, sans-serif" font-size="18" letter-spacing="0.02em">Przypomnienie o jutrzejszej wizycie o 14:00.</text>
    <text x="938" y="362" fill="#94a3b8" font-family="Inter, sans-serif" font-size="12">13:37</text>
    <rect x="908" y="402" width="496" height="76" rx="32" fill="#0f172a" />
    <text x="938" y="438" fill="#ecfdf5" font-family="Inter, sans-serif" font-size="18" letter-spacing="0.02em">Czy nadal są Państwo zainteresowani?</text>
    <text x="938" y="458" fill="#94a3b8" font-family="Inter, sans-serif" font-size="12">13:38</text>
    <rect x="932" y="510" width="472" height="88" rx="32" fill="#0f172a" />
    <text x="962" y="546" fill="#ecfdf5" font-family="Inter, sans-serif" font-size="18" letter-spacing="0.02em">Dziękujemy za wiadomość — wracamy z odpowiedzią za kilka minut.</text>
    <text x="962" y="570" fill="#94a3b8" font-family="Inter, sans-serif" font-size="12">13:39</text>
    <rect x="898" y="642" width="520" height="64" rx="32" fill="#13131a" />
    <text x="918" y="674" fill="#a1a1aa" font-family="Inter, sans-serif" font-size="14" opacity="0.9">Wiadomość</text>
  </g>

  <defs>
    <filter id="leftGlow" x="0" y="0" width="900" height="930" filterUnits="userSpaceOnUse" color-interpolation-filters="sRGB">
      <feGaussianBlur stdDeviation="18" result="blur"/>
      <feComposite in="SourceGraphic" in2="blur" operator="over"/>
    </filter>
    <filter id="rightGlow" x="780" y="0" width="900" height="930" filterUnits="userSpaceOnUse" color-interpolation-filters="sRGB">
      <feGaussianBlur stdDeviation="18" result="blur"/>
      <feComposite in="SourceGraphic" in2="blur" operator="over"/>
    </filter>
  </defs>
</svg>
